# xmcd
#
# Track frame offsets: 
#        150
#        11968
#        23817
#        38437
#        49113
#        62574
#        76451
#        87391
#        100243
#        111921
#
# Disc length: 1683 seconds
#
# Revision: 0
# Processed by: cddbd v1.5.2PL0 Copyright (c) Steve Scherf et al.
# Submitted via: ExactAudioCopy v0.95a5
#
DISCID=7706910a
DTITLE=Buddy Charlton and Billy Cooper - Steel Together
DYEAR=2004
DGENRE=Folk
TTITLE0=Fraulein
TTITLE1=Waltz Across Texas
TTITLE2=Don't Touch Me
TTITLE3=Lets Say Hello
TTITLE4=Ashokan Farewell
TTITLE5=Another Bridge To Burn
TTITLE6=What A Way To Live
TTITLE7=Half A Mind
TTITLE8=Shenandohah
TTITLE9=Forty String Swing
EXTD=
EXTT0=
EXTT1=
EXTT2=
EXTT3=
EXTT4=
EXTT5=
EXTT6=
EXTT7=
EXTT8=
EXTT9=
PLAYORDER=
